<svg id="a743ce99-7d47-4f91-aace-7b03bd44f0a2" data-name="Layer 1" xmlns="http://www.w3.org/2000/svg" viewBox="0 0 512 512">
  <defs>
    <style>
      .e46feac9-f43c-471f-996b-a3d5320cc4a5 {
        fill: #29337a;
      }

      .aa9eec0f-f503-4c36-ac3d-a068d4421410 {
        fill: #fff;
      }

      .aef51cd4-df02-4838-82c7-079b088744d4 {
        fill: #d32030;
      }

      .bc8254f3-22bd-490b-82ea-05b735dfa386 {
        fill: #252f6c;
      }

      .a524dc0a-3f4a-4a77-8a8b-6a70c1466978 {
        fill: #e7e7e7;
      }

      .ade193f2-093a-439d-9fd2-ca959ae0b421 {
        fill: #d71f28;
      }

      .b2f964b9-3305-4bad-a440-457bd74345fe {
        fill: #e51d35;
      }
    </style>
  </defs>
  <g>
    <g>
      <path class="e46feac9-f43c-471f-996b-a3d5320cc4a5" d="M45.08644,110.9445A254.8921,254.8921,0,0,0,8.42453,190.72779H124.874Z"/>
      <path class="e46feac9-f43c-471f-996b-a3d5320cc4a5" d="M184.30509,10.24692a255.07861,255.07861,0,0,0-80.86635,40.17483l80.86635,80.86635Z"/>
      <path class="e46feac9-f43c-471f-996b-a3d5320cc4a5" d="M109.45287,465.8478a254.69544,254.69544,0,0,0,74.85222,35.89772V391.00745Z"/>
      <path class="e46feac9-f43c-471f-996b-a3d5320cc4a5" d="M11.36241,331.58832a255.036,255.036,0,0,0,38.012,75.48239l75.48239-75.48239Z"/>
    </g>
    <g>
      <path class="aa9eec0f-f503-4c36-ac3d-a068d4421410" d="M49.30951,105.0028q-2.14667,2.93465-4.22415,5.946l79.7876,79.78328H8.42344c-1.88725,7.18258-3.42753,14.5035-4.6965,21.92494H156.97241Z"/>
      <path class="aa9eec0f-f503-4c36-ac3d-a068d4421410" d="M103.51441,461.62366c1.94778,1.45163,3.9496,2.833,5.93737,4.22414L184.304,391.00422V501.74229c7.19122,2.10235,14.49485,3.91717,21.92494,5.37639V358.91234Z"/>
      <path class="aa9eec0f-f503-4c36-ac3d-a068d4421410" d="M5.67472,309.66337c1.58892,7.429,3.46428,14.74562,5.68336,21.925H124.85351L49.37112,407.07071a257.72346,257.72346,0,0,0,27.20406,31.47576l128.882-128.8831Z"/>
      <path class="aa9eec0f-f503-4c36-ac3d-a068d4421410" d="M184.30509,10.24692V131.2881l-80.86743-80.862a257.44574,257.44574,0,0,0-31.225,27.45806l134.013,134.01305V4.87053C198.79994,6.33839,191.49631,8.15754,184.30509,10.24692Z"/>
    </g>
    <g>
      <polygon class="aef51cd4-df02-4838-82c7-079b088744d4" points="184.305 330.815 183.537 331.588 184.305 331.588 184.305 330.815"/>
      <polygon class="aef51cd4-df02-4838-82c7-079b088744d4" points="205.462 309.663 206.229 309.663 206.229 308.892 205.462 309.663"/>
      <polygon class="aef51cd4-df02-4838-82c7-079b088744d4" points="303.98 212.653 303.241 212.653 303.241 213.396 303.98 212.653"/>
      <polygon class="aef51cd4-df02-4838-82c7-079b088744d4" points="185.061 190.732 184.305 189.972 184.305 190.732 185.061 190.732"/>
      <polygon class="aef51cd4-df02-4838-82c7-079b088744d4" points="206.229 211.896 206.229 212.653 206.986 212.653 206.229 211.896"/>
    </g>
    <g>
      <path class="bc8254f3-22bd-490b-82ea-05b735dfa386" d="M325.16131,445.07511v57.386a254.53183,254.53183,0,0,0,75.891-35.55832L338.87251,404.723C333.9036,422.1806,332.08552,431.20611,325.16131,445.07511Z"/>
      <path class="bc8254f3-22bd-490b-82ea-05b735dfa386" d="M339.19894,117.24614,407.0783,49.3668A255.02536,255.02536,0,0,0,325.16022,9.53136V68.48141C333.14372,84.4679,333.815,96.615,339.19894,117.24614Z"/>
      <path class="bc8254f3-22bd-490b-82ea-05b735dfa386" d="M461.575,408.56236a255.2687,255.2687,0,0,0,39.07124-76.974H384.601Z"/>
      <path class="bc8254f3-22bd-490b-82ea-05b735dfa386" d="M503.57656,190.73211a254.8085,254.8085,0,0,0-37.7212-81.27492l-81.28355,81.27492Z"/>
    </g>
    <g>
      <path class="a524dc0a-3f4a-4a77-8a8b-6a70c1466978" d="M354.14343,314.001l17.59162,17.59162,84.20522,84.20522c1.91212-2.3931,3.81125-4.77759,5.63906-7.23121l-76.974-76.974H500.65057q3.31726-10.7625,5.67472-21.92494H355.78856C355.54212,312.77637,354.43853,310.9129,354.14343,314.001Z"/>
      <path class="a524dc0a-3f4a-4a77-8a8b-6a70c1466978" d="M336.53991,130.084l76.319-76.32765c-1.91212-1.483-3.82744-2.95842-5.78063-4.38953l-67.87936,67.87934C339.90261,119.93,335.88489,127.33525,336.53991,130.084Z"/>
      <path class="a524dc0a-3f4a-4a77-8a8b-6a70c1466978" d="M325.16131,63.76437V9.527Q314.38747,6.5081,303.23637,4.41763V30.8737C311.39391,39.71762,318.70617,50.826,325.16131,63.76437Z"/>
      <path class="a524dc0a-3f4a-4a77-8a8b-6a70c1466978" d="M352.41722,212.65273H508.27739c-1.26572-7.42144-2.80925-14.738-4.69651-21.92494H384.57613l81.28355-81.27492a257.29631,257.29631,0,0,0-26.5728-32.09836l-91.55426,91.54562C350.19816,185.506,351.30175,195.14975,352.41722,212.65273Z"/>
      <path class="a524dc0a-3f4a-4a77-8a8b-6a70c1466978" d="M335.17368,401.01553,401.0566,466.906a256.83986,256.83986,0,0,0,30.90611-25.065l-86.65888-86.6632A444.77112,444.77112,0,0,1,335.17368,401.01553Z"/>
      <path class="a524dc0a-3f4a-4a77-8a8b-6a70c1466978" d="M303.24069,478.08249V507.5694q11.1435-2.07369,21.92494-5.10939V445.074C318.70617,458.01779,311.39391,469.25048,303.24069,478.08249Z"/>
    </g>
    <path class="ade193f2-093a-439d-9fd2-ca959ae0b421" d="M347.73262,168.90013l91.54562-91.54562a255.95892,255.95892,0,0,0-26.42363-23.59818L340.92083,125.702C344.1181,139.06516,345.56974,154.361,347.73262,168.90013Z"/>
    <g>
      <path class="aef51cd4-df02-4838-82c7-079b088744d4" d="M243.2227.31562Q249.62055.00594,255.99568,0,249.57516,0,243.2227.31562Z"/>
      <path class="aef51cd4-df02-4838-82c7-079b088744d4" d="M255.99568,512c-4.25658,0-8.50883-.11673-12.76541-.3232Q249.57947,511.99788,255.99568,512Z"/>
      <path class="aef51cd4-df02-4838-82c7-079b088744d4" d="M255.99568,512a256.53457,256.53457,0,0,0,47.24392-4.4306V478.08249C289.79213,492.65843,274.06074,512,255.99568,512Z"/>
    </g>
    <g>
      <path class="ade193f2-093a-439d-9fd2-ca959ae0b421" d="M508.27307,212.65273H354.43853a687.906,687.906,0,0,1-.73609,97.01064H506.32529a255.39518,255.39518,0,0,0,1.94778-97.01064Z"/>
      <path class="ade193f2-093a-439d-9fd2-ca959ae0b421" d="M354.14343,314.001c-1.42247,15.12608-6.37838,26.91222-8.84392,41.18115l86.65888,86.65888A258.42719,258.42719,0,0,0,455.936,415.79789l-84.202-84.20957Z"/>
    </g>
    <path class="aef51cd4-df02-4838-82c7-079b088744d4" d="M303.24069,32.77717V4.422A257.219,257.219,0,0,0,255.99568,0C274.06074,0,289.79213,18.20557,303.24069,32.77717Z"/>
    <g>
      <path class="e46feac9-f43c-471f-996b-a3d5320cc4a5" d="M325.16131,456.14673a275.74293,275.74293,0,0,0,17.83374-47.29686l-17.83374-17.83374Z"/>
      <path class="e46feac9-f43c-471f-996b-a3d5320cc4a5" d="M345.21414,111.23094c-5.39261-20.63111-12.06933-39.38686-20.05283-55.37335v75.41753Z"/>
    </g>
    <g>
      <path class="aa9eec0f-f503-4c36-ac3d-a068d4421410" d="M359.11125,318.96452q.43616-4.63218.80418-9.30115H349.81011Z"/>
      <path class="aa9eec0f-f503-4c36-ac3d-a068d4421410" d="M325.16131,131.2762V55.85435C318.70185,42.916,311.39391,31.8,303.23637,22.96369v140.4152l44.03039-44.0304c-.6626-2.74872-1.35868-5.44124-2.05371-8.12511Z"/>
      <path class="aa9eec0f-f503-4c36-ac3d-a068d4421410" d="M303.98,212.65273h56.67044c-1.11118-17.50191-2.88166-34.7217-5.344-51.32322Z"/>
      <path class="aa9eec0f-f503-4c36-ac3d-a068d4421410" d="M303.24069,489.03309c8.15754-8.84392,15.46551-19.95229,21.92494-32.89068V391.01178l17.83374,17.83373a441.5091,441.5091,0,0,0,10.29555-45.67984l-50.05317-50.04994-.00106,175.91736Z"/>
    </g>
    <path class="b2f964b9-3305-4bad-a440-457bd74345fe" d="M303.24069,489.03309V313.11576l50.04991,50.05318c2.46122-14.27325,4.39818-29.07507,5.81633-44.20442l-9.30115-9.30115H359.9111a688.23476,688.23476,0,0,0,.7361-97.01064H303.97678L355.3,161.32951c-2.16289-14.54349-4.83812-28.6103-8.03539-41.97777l-44.02283,44.0304V22.96693C289.79213,8.391,274.06074,0,255.99568,0q-6.38487,0-12.773.31562a257.70379,257.70379,0,0,0-36.99374,4.556V211.8972L72.21267,77.88414A258.47913,258.47913,0,0,0,49.30951,105.0028l85.72931,85.72931,21.93251,21.92494H3.72694a255.372,255.372,0,0,0,1.94778,97.00632H205.46151L76.57842,438.54647a257.83042,257.83042,0,0,0,26.93707,23.0761L206.22571,358.91234V507.12082a257.93892,257.93892,0,0,0,37.00131,4.556c4.25659.20647,8.50883.3232,12.76541.3232C274.06074,512,289.79213,503.609,303.24069,489.03309Z"/>
  </g>
</svg>
