<svg xmlns="http://www.w3.org/2000/svg" version="1.1" xmlns:xlink="http://www.w3.org/1999/xlink" xmlns:svgjs="http://svgjs.com/svgjs" width="512" height="512" x="0" y="0" viewBox="0 0 512 512" style="enable-background:new 0 0 512 512" xml:space="preserve" class=""><g><g xmlns="http://www.w3.org/2000/svg"><g><g><g><g><g><g><circle cx="256" cy="256" fill="#a3d4ff" r="256" data-original="#a3d4ff"></circle></g></g></g></g></g></g><path d="m509.518 291.792-46.52-46.52-2.18 4.373-108.839-108.838-279.514 220.01 148.854 148.853c11.341 1.536 22.918 2.33 34.681 2.33 129.238 0 236.108-95.767 253.518-220.208z" fill="#65b1fc" data-original="#65b1fc" class=""></path><g><path d="m430.986 315.746c23.48 0 42.514-19.034 42.514-42.514s-19.034-42.514-42.514-42.514c-1.888 0-3.746.124-5.569.362-8.997-23.307-31.616-39.84-58.096-39.84-3.466 0-6.866.283-10.177.828-14.074-27.531-42.715-46.379-75.757-46.379-46.96 0-85.029 38.069-85.029 85.029s38.069 85.029 85.029 85.029h149.599z" fill="#e9edf5" data-original="#e9edf5"></path></g><g><path d="m314.043 212.151c18.353 0 33.231-14.878 33.231-33.231s-14.878-33.231-33.231-33.231c-1.476 0-2.928.097-4.353.283-7.033-18.218-24.713-31.141-45.411-31.141-2.709 0-5.366.221-7.955.647-11.001-21.52-33.388-36.252-59.215-36.252-36.706 0-66.463 29.756-66.463 66.463 0 36.706 29.756 66.462 66.463 66.462z" fill="#ffffff" data-original="#ffffff"></path></g><g><circle cx="269.502" cy="212.524" fill="#ffce00" r="109.296" data-original="#ffce00" class=""></circle></g><g><path d="m269.502 103.228c-.244 0-.487.008-.731.009v218.573c.244.002.487.009.731.009 60.362 0 109.296-48.933 109.296-109.296 0-60.361-48.934-109.295-109.296-109.295z" fill="#fdba12" data-original="#fdba12"></path></g><g><path d="m279.255 382.923c23.48 0 42.514-19.034 42.514-42.515 0-23.48-19.034-42.514-42.514-42.514-1.888 0-3.746.124-5.569.362-8.997-23.307-31.616-39.84-58.096-39.84-3.466 0-6.865.283-10.177.828-14.074-27.531-42.715-46.379-75.757-46.379-46.96 0-85.029 38.069-85.029 85.029s38.069 85.029 85.029 85.029z" fill="#ffffff" data-original="#ffffff"></path></g><g><path d="m279.255 297.894c-1.888 0-3.746.124-5.569.362-8.998-23.307-31.616-39.84-58.096-39.84-3.466 0-6.865.283-10.177.828-5.767-11.281-13.983-21.101-23.943-28.767v152.446h97.785c23.48 0 42.514-19.034 42.514-42.514 0-23.481-19.034-42.515-42.514-42.515z" fill="#e9edf5" data-original="#e9edf5"></path></g></g></g></svg>